<?xml version="1.0" encoding="UTF-8" standalone="no"?><!DOCTYPE svg PUBLIC "-//W3C//DTD SVG 1.1//EN" "http://www.w3.org/Graphics/SVG/1.1/DTD/svg11.dtd"><svg width="100%" height="100%" viewBox="0 0 56 60" version="1.1" xmlns="http://www.w3.org/2000/svg" xmlns:xlink="http://www.w3.org/1999/xlink" xml:space="preserve" xmlns:serif="http://www.serif.com/" style="fill-rule:evenodd;clip-rule:evenodd;stroke-linejoin:round;stroke-miterlimit:2;"><g><path d="M51.503,59.169c-0.148,0.002 -0.296,0.003 -0.444,0.003c-10.484,0 -19.647,-5.705 -24.551,-14.177c0.148,0.003 0.296,0.004 0.444,0.004c10.483,-0 19.645,-5.703 24.549,-14.173c2.415,4.17 3.797,9.011 3.797,14.173c0,5.16 -1.382,10 -3.795,14.17Z" style="fill:#507049;"/><path d="M24.295,43.677c-10.297,-0.158 -19.27,-5.819 -24.105,-14.17c4.835,-8.35 13.808,-14.011 24.105,-14.17c-2.413,4.17 -3.795,9.01 -3.795,14.17c-0,5.16 1.382,10 3.795,14.17Z" style="fill:#507049;"/><path d="M26.385,14.232c4.904,-8.472 14.066,-14.176 24.551,-14.176c0.148,-0 0.296,0.001 0.444,0.003c2.413,4.17 3.795,9.01 3.795,14.17c0,5.161 -1.382,10.003 -3.797,14.173c-4.904,-8.47 -14.066,-14.173 -24.549,-14.173c-0.149,-0 -0.296,0.001 -0.444,0.003Z" style="fill:#507049;"/><path d="M25.747,43.677c-2.414,-4.17 -3.795,-9.01 -3.795,-14.17c-0,-5.16 1.381,-10 3.795,-14.17c0.147,-0.002 0.295,-0.003 0.444,-0.003c10.483,-0 19.645,5.703 24.549,14.173c-4.904,8.47 -14.066,14.173 -24.549,14.173c-0.149,0 -0.297,-0.001 -0.444,-0.003Z" style="fill:#507049;"/></g></svg>