<?xml version="1.0" encoding="UTF-8" standalone="no"?><!DOCTYPE svg PUBLIC "-//W3C//DTD SVG 1.1//EN" "http://www.w3.org/Graphics/SVG/1.1/DTD/svg11.dtd"><svg width="100%" height="100%" viewBox="0 0 56 59" version="1.1" xmlns="http://www.w3.org/2000/svg" xmlns:xlink="http://www.w3.org/1999/xlink" xml:space="preserve" xmlns:serif="http://www.serif.com/" style="fill-rule:evenodd;clip-rule:evenodd;stroke-linecap:round;stroke-linejoin:round;stroke-miterlimit:1.5;"><g><path d="M25.635,43.533c-4.819,0.006 -9.703,-1.217 -14.173,-3.798c-4.469,-2.58 -7.97,-6.197 -10.374,-10.372c0.072,-0.129 0.145,-0.257 0.219,-0.386c5.242,-9.079 14.764,-14.162 24.553,-14.173" style="fill:none;stroke:#507049;stroke-width:1.82px;"/><path d="M25.86,14.804c-0.076,0.127 -0.151,0.254 -0.225,0.382c-5.242,9.079 -4.884,19.865 -0,28.347" style="fill:none;stroke:#507049;stroke-width:1.82px;"/><path d="M25.86,14.804c5.286,-8.839 14.675,-13.779 24.324,-13.791c4.814,8.362 5.23,18.963 0.219,27.961" style="fill:none;stroke:#507049;stroke-width:1.82px;"/><path d="M48.654,26.3c0.635,0.86 1.219,1.753 1.749,2.674" style="fill:none;stroke:#507049;stroke-width:1.99px;"/><path d="M25.86,14.804c4.817,-0.005 9.7,1.218 14.169,3.798c3.484,2.011 6.379,4.653 8.625,7.698" style="fill:none;stroke:#507049;stroke-width:1.99px;"/><path d="M52.029,32.275c3.26,7.868 2.958,17.111 -1.625,25.049c-0.074,0.128 -0.149,0.256 -0.225,0.383c-4.817,0.005 -9.7,-1.218 -14.169,-3.799c-4.47,-2.58 -7.971,-6.198 -10.375,-10.375" style="fill:none;stroke:#507049;stroke-width:1.99px;"/><path d="M50.403,28.974c0.614,1.066 1.157,2.17 1.626,3.301" style="fill:none;stroke:#507049;stroke-width:1.99px;"/><path d="M50.403,28.974c-0.072,0.129 -0.145,0.257 -0.219,0.386c-5.242,9.078 -14.762,14.161 -24.549,14.173" style="fill:none;stroke:#507049;stroke-width:1.82px;"/></g></svg>